<svg fill="none" height="30" viewBox="0 0 137 30" width="137" xmlns="http://www.w3.org/2000/svg"><path d="m137 29.0565h-3.741l-6.392-7.4925-6.361 7.4925h-3.719l8.214-9.678-7.768-9.102h3.741l5.888 6.903 5.859-6.903h3.72l-7.714 9.09 8.273 9.6885zm-31.636.9435c-5.8026 0-10.5058-4.6275-10.5058-10.335 0-5.706 4.7047-10.3305 10.5068-10.3305 5.802 0 10.505 4.626 10.505 10.332 0 5.7075-4.704 10.3335-10.508 10.3335zm.021-17.874c-3.096 0-5.8854 1.8315-7.0702 4.644-.5784 1.3754-.7294 2.8921-.4337 4.354.2958 1.4618 1.0247 2.8017 2.0928 3.8465 1.0771 1.0542 2.4411 1.7704 3.9231 2.0602s3.017.1404 4.414-.4297c1.391-.5604 2.584-1.521 3.424-2.7593.841-1.2383 1.293-2.6981 1.298-4.1932 0-4.155-3.425-7.5225-7.648-7.5225zm-24.3834 17.394c-5.8789 0-7.6434-1.41-7.6434-1.41v-27.2505h2.8665v9.8805c1.4965-.675 3.1314-1.005 4.7769-.96 5.8052 0 10.5114 4.158 10.5114 9.861 0 5.7045-4.7107 9.879-10.5144 9.879zm0-16.9155c-1.7088.023-3.3719.5531-4.7769 1.5225v11.634c1.4871.7101 3.1305 1.0337 4.7769.9405 4.2214 0 7.6449-2.901 7.6449-7.0485s-3.4265-7.05-7.6479-7.05zm-17.1987-11.7465h2.8664v28.1925h-2.8664zm-9.5554 0h2.8664v28.1925h-2.8664zm-8.217 4.197c-.3104.00198-.6182-.05698-.9057-.17351s-.5492-.28834-.7701-.50563c-.2208-.21729-.3966-.4758-.5172-.76077-.1206-.28498-.1837-.59083-.1857-.90009 0-1.29 1.0659-2.3385 2.3787-2.3385 1.3143 0 2.3787 1.0485 2.3787 2.34 0 .6195-.2499 1.215-.6971 1.6545-.4486.43927-1.0526.68498-1.6816.684zm-9.462 23.9955-10.0266-9.861 9.0766-8.934h4.0528l-9.0781 8.934 10.0265 9.861zm-12.9006 0v-28.1925h2.8664v28.1925zm-4.5406-7.668c0 4.7115-3.8149 8.13-9.87604 8.13-3.5041-.0923-6.82951-1.561-9.25126-4.086l2.0264-2.205c1.89692 1.776 4.12957 3.5025 7.18572 3.5025 3.39488 0 7.05478-1.872 7.05478-5.235 0-2.7915-2.2568-4.614-6.99908-6.051-5.40472-1.6215-8.14773-3.825-8.14773-7.971 0-4.101 3.52888-7.467 8.55723-7.467 3.75618 0 6.10628 1.575 8.39308 3.585l-1.9917 2.178c-2.0053-1.749-3.9173-2.9325-6.26288-2.9325-2.90711 0-5.77959 1.845-5.77959 4.5 0 2.406 1.40613 3.939 6.37127 5.433 4.5466 1.377 8.7198 3.51 8.7198 8.619zm28.4388 7.668h-2.868v-18.795h2.8665v18.795z" fill="#333"/></svg>